<svg xmlns="http://www.w3.org/2000/svg" id="Layer_1" data-name="Layer 1" viewBox="0 0 900 400"><title>_RGB</title><path d="M824.021,320.016V267.208H681.351v52.808h-29.6V182.438A100.932,100.932,0,0,1,752.727,81.506h0a100.933,100.933,0,0,1,100.89,100.932V320.016Z" fill="#fff"></path><path d="M276.3,267.208l-26.845,52.808H215.435L340.073,79.984,464.711,320.016H430.458l-28-52.808Z" fill="#fff"></path><polygon points="248.309 81.428 46.382 81.428 46.382 111.026 132.546 111.026 132.546 320.016 162.145 320.016 162.145 111.026 248.309 111.026 248.309 81.428" fill="#fff"></polygon><polygon points="524.439 290.417 524.439 81.46 494.84 81.46 494.84 319.974 494.84 320.016 617.402 320.016 617.402 290.417 524.439 290.417" fill="#fff"></polygon></svg>